<svg xmlns="http://www.w3.org/2000/svg" viewBox="0 0 947.09 253.67"><defs><style>.cls-1{fill:#48c43c;}.cls-2{fill:#192935;}</style></defs><g id="Layer_2" data-name="Layer 2"><g id="Layer_1-2" data-name="Layer 1"><path class="cls-1" d="M149.6,170c-13,9.92-27.88,16.89-42.33,24.4-6.45,2.9-24-19.69-28.8-24.82-2.39-3.11-3.91-3-6.9-.78C52.45,183,33.08,196.82,14,211.07,4,218.94,1.84,192.33.08,186.52c-.39-2.19.7-3.56,2-5C19.33,162.69,36.6,143.89,53.74,125c2.82-3.13,4.13-3,5.9.87,4.54,10,10.22,19.37,16.09,28.65,2.19,3.46,3.68,3.27,6.63,1,10.39-8.13,21.11-15.84,31.45-24,3.46-2.73,5-2.1,7.47,1.23C130.42,145.36,140.72,157.08,149.6,170Z"/><path class="cls-1" d="M250,65.69c-16.06,21.56-36.68,40.47-54.2,61.2-2.42,2.69-3.44,2.26-4.89-.79a189.43,189.43,0,0,0-15.42-27.3c-4.45-6.37-2.93-6.49-9.73-1.36-10.13,7.65-20.3,15.25-30.27,23.1-2.7,2.12-4,1.84-6-.81-35.3-49-41.59-31.46,12.78-62.57,4.4-4.49,25.66,20.42,29.44,24.65,2.16,2.83,3.58,3,6.47.89C197.38,68.33,216.82,54.23,236,39.83,245.78,32.12,248.39,60,250,65.69Z"/><path class="cls-2" d="M184.74,250c-21.29-15.45-39.47-36.35-59.79-53.6-2.91-2.66-2.7-4.15.84-5.84,9.42-4.52,18.32-10,27.25-15.41,3.76-2.27,5.09-3.86,1.77-8-36.39-49.05-32.07-26.06,11.72-64.64,2.72-2.16,4-1.93,5.8,1q11.41,18.93,21.28,38.72c4.49,6.92-19.35,24.35-24.39,29.8-2.92,2.39-2.57,4-.59,6.72,14,19.06,27.75,38.3,41.83,57.3C218.28,245.82,190.14,248.63,184.74,250Z"/><path class="cls-2" d="M63.83,0c22.26,14.81,40.4,37.15,61.33,54.51,2.54,2.33,2.47,3.39-.75,4.94-5,3.57-38.79,16.19-29.92,23.13,8.15,10.37,16,21,24.12,31.37,2.4,3,2.08,4.58-1,6.88-11.54,8.61-22.88,17.48-34.21,26.38-2.47,1.94-4,2.47-6-.72-7.92-12.85-14.95-26.18-21.87-39.58C52.68,101.1,75.43,83,80.29,78.5c2.73-2.09,3.25-3.5,1-6.5C67.17,52.84,53.22,33.52,39.21,14.25,29.51,4.24,58.55,1.22,63.83,0Z"/><path class="cls-2" d="M726.45,10v2.39q0,70.73,0,141.44a91.11,91.11,0,0,1-12.79,47.06c-12.22,20.76-29.89,35.23-52,44.36a111.12,111.12,0,0,1-31.29,7.8c-3,.3-5.92.47-8.89.62-1.32.07-1.33,0-1.38-1.29,0-.47,0-1,0-1.42V203.73a13.45,13.45,0,0,0,0-1.42c-.11-1,.29-1.26,1.25-1.33a53.25,53.25,0,0,0,14.24-2.78c13.27-4.68,23.35-13,29.48-25.82a45.61,45.61,0,0,0,4.09-20c0-27.43.07-54.85,0-82.27-.06-12.48,4.15-23.22,12.15-32.62a77.18,77.18,0,0,1,18.22-15.32A114.43,114.43,0,0,1,724.29,10.5c.44-.15.9-.29,1.35-.41C725.83,10,726,10,726.45,10Z"/><path class="cls-1" d="M417.59,144.87a4.77,4.77,0,0,0-.2,2.16c0,11.42.07,22.83,0,34.25A65.2,65.2,0,0,0,423.21,209a14.85,14.85,0,0,1,1.29,4.24,5.44,5.44,0,0,1-4.74,6.41,12.39,12.39,0,0,1-2,.13h-34a7.07,7.07,0,0,1-2-.17c-4.61-1.35-5.71-4-4.66-8.31a32.44,32.44,0,0,1,1.75-4.31,64.5,64.5,0,0,0,4.94-24.84q-.06-45.48,0-91c0-3.71,0-7.43,0-11.14a62.91,62.91,0,0,0-5.91-26.86,12.31,12.31,0,0,1-1.12-4.89c-.09-3.94,2.52-5.22,4.92-5.61a13.77,13.77,0,0,1,2.23-.11c11.07,0,22.15,0,33.23,0a8,8,0,0,1,5.81,1.9c.76.72,1.35.27,2,0a48.51,48.51,0,0,1,11.76-3.61c22.18-3.75,43.61,5.84,53.63,27.44,4.85,10.44,6.2,21.47,5.55,32.79-.54,9.46-2.64,18.57-7.29,26.93-6.12,11-14.67,19.28-26.69,23.62-.23.09-.55.08-.6.43s.22.47.43.62c9,6.7,15.21,15.62,20.43,25.33a133.54,133.54,0,0,1,8.08,18.77,23,23,0,0,0,5.08,8.19,42.38,42.38,0,0,1,4.07,4.5,7.11,7.11,0,0,1,1.22,2.75c.93,4.35-.86,6.94-5.28,7.5a18.23,18.23,0,0,1-2.22.1c-10.4,0-20.81-.06-31.21,0a6,6,0,0,1-6-3.85,40.24,40.24,0,0,1-2.82-10.1c-2.37-13.3-5.33-26.44-10.5-39a46.26,46.26,0,0,0-7.62-13.06,3.9,3.9,0,0,0-1.93-1.39,47.06,47.06,0,0,1-14.48-7.06A6.93,6.93,0,0,0,417.59,144.87Zm-.21-44.75c0,9.93,0,19.85,0,29.78a3.49,3.49,0,0,0,1.31,3,27.34,27.34,0,0,0,10.6,6.14c9.72,2.64,16.79,0,21.94-7.6a37.7,37.7,0,0,0,5.42-13.22,97.11,97.11,0,0,0,2-19.08,107.25,107.25,0,0,0-1.64-23,34.42,34.42,0,0,0-5.9-14.28,17.61,17.61,0,0,0-11.45-7.37,29.55,29.55,0,0,0-8.08-.1c-6,.65-10.4,3.54-12.44,9.45a22.3,22.3,0,0,0-1,4.11A75.8,75.8,0,0,0,417.4,78C417.33,85.39,417.38,92.76,417.38,100.12Z"/><path class="cls-1" d="M294.84,74.24a37.11,37.11,0,0,0,6.41,21.65,84,84,0,0,0,14.12,15.82c7.12,6.34,14.85,11.92,22.28,17.86,6.38,5.11,12.59,10.43,17.87,16.72,4.54,5.4,8.63,11.12,10.91,17.88a43.5,43.5,0,0,1,1.45,24.7,33.2,33.2,0,0,1-8,14.33c-6.95,7.78-15.71,12.64-25.58,15.63a83.32,83.32,0,0,1-19.9,3.37,93.47,93.47,0,0,1-31.23-3.32c-6.23-1.81-12-4.54-16.71-9.13a21.65,21.65,0,0,1-6.18-10.49,14.35,14.35,0,0,1,12.68-17.83,19.67,19.67,0,0,1,6.8.54,11,11,0,0,1,5.72,4A61.93,61.93,0,0,1,292,196.85a107.61,107.61,0,0,0,6.06,11A12.49,12.49,0,0,0,309.61,214a40.75,40.75,0,0,0,6.24-.54c8.35-1.43,15.06-7.51,17-16.86a39.79,39.79,0,0,0-1-21,41,41,0,0,0-6.35-11.45c-4.69-6.35-10.43-11.66-16.44-16.71s-12.46-9.27-18.53-14.1c-7.37-5.86-14.36-12.1-19.93-19.77-4.11-5.67-7.65-11.63-9.07-18.6-1.69-8.33-2-16.63,1.4-24.67a42.1,42.1,0,0,1,11.71-15.56c8-6.88,17.35-10.74,27.51-13,8-1.79,16.06-1.93,24.17-1.57,8.6.38,17.06,1.56,25.1,4.84,5,2,9.52,4.79,12.91,9.13a20.32,20.32,0,0,1,4.35,14.38c-.3,4.34-4.46,11-11.45,12.14a20.33,20.33,0,0,1-5.83.27c-3.77-.45-6.44-2.61-8.62-5.5a41.61,41.61,0,0,1-4.94-9.26,63.48,63.48,0,0,0-4.51-9.27,28.29,28.29,0,0,0-3.66-4.58,13.28,13.28,0,0,0-9.25-4,30.83,30.83,0,0,0-8.24.67c-8.92,1.94-14.19,7.62-16.36,16.29A32.5,32.5,0,0,0,294.84,74.24Z"/><path class="cls-2" d="M826.67,205.32c.79-2.86,1.59-5.7,2.36-8.56l28.1-104c1.23-4.56,2.37-9.14,3.72-13.66,2.06-6.91,1.13-13.47-2-19.83a35.11,35.11,0,0,0-4.44-7,12.89,12.89,0,0,1-1.61-2.33,5.72,5.72,0,0,1,4-8.31,12.67,12.67,0,0,1,2.81-.25c8.11,0,16.21,0,24.32,0a9.43,9.43,0,0,1,5.21,1.35,5,5,0,0,1,1.46,7.37,15.35,15.35,0,0,1-2.21,2.35,137.49,137.49,0,0,0-9.79,10,45.4,45.4,0,0,0-9.72,18.65c-4.56,17.34-9.25,34.64-13.91,52q-9.71,36-19.45,72a64.44,64.44,0,0,1-3.18,9.16,7,7,0,0,1-7.11,4.58c-7.64-.1-15.27-.08-22.9,0a7.57,7.57,0,0,1-6.58-3.27,31.43,31.43,0,0,1-4.63-10q-6.81-22.66-13.53-45.34-12.18-40.77-24.36-81.55a59.57,59.57,0,0,0-11.09-20.29c-1.6-2-3.23-4-4.85-6a10.86,10.86,0,0,1-1.65-2.54,5.77,5.77,0,0,1,4.14-8.12,12.7,12.7,0,0,1,2.82-.25q17.82,0,35.66,0a9.71,9.71,0,0,1,4.51.91A5.41,5.41,0,0,1,786,48.21c-.18,1.47-.47,2.93-.72,4.39a42.15,42.15,0,0,0,.19,13.31c1,7,3.31,13.75,5.33,20.52q17.45,58.51,35,117c.19.64.4,1.28.6,1.92Z"/><path class="cls-2" d="M510.61,112.07c.4-.15.57.13.77.27,9.77,7.14,20.75,11.68,32.32,14.91a143.13,143.13,0,0,0,20.6,4.14c1.82.22,1.82.23,1.83,2.08,0,5.94.13,11.89,0,17.82-.63,24.88,16.4,41.08,33.37,47a60,60,0,0,0,14.8,3.1c1.69.14,1.7.12,1.7,1.82q0,18.74,0,37.48c0,3.51,0,7,0,10.53,0,2.36.29,2.17-2.23,2a120.8,120.8,0,0,1-15.29-1.59,111.15,111.15,0,0,1-43.13-17c-18.2-12.16-31.61-28.22-39.27-48.86a87.48,87.48,0,0,1-5.57-30.49q0-20.86,0-41.73C510.48,113.05,510.32,112.51,510.61,112.07Z"/><path class="cls-2" d="M923,41.37c5.53,0,11.07,0,16.61,0A9.13,9.13,0,0,1,945,42.93a4.7,4.7,0,0,1,2.13,3.93,11.46,11.46,0,0,1-1.23,5.26,67.5,67.5,0,0,0-5,16.18,50.57,50.57,0,0,0-.75,9.27q0,52.49,0,105a61.45,61.45,0,0,0,5.55,24.89,14.57,14.57,0,0,1,1.44,4.61,5.78,5.78,0,0,1-5.21,6.5,22.14,22.14,0,0,1-2.82.19H907.41a10.67,10.67,0,0,1-4.74-.81,5.64,5.64,0,0,1-3.36-6.64,16.15,16.15,0,0,1,1.17-3.43,64.3,64.3,0,0,0,5.84-27.07q-.06-50.65,0-101.31a64.87,64.87,0,0,0-5.85-27.27,16.38,16.38,0,0,1-1.07-3,6,6,0,0,1,5.36-7.69,18.48,18.48,0,0,1,2.23-.09Z"/><path class="cls-1" d="M567.58,124.8a85.25,85.25,0,0,1-10.92-4c-10-4.32-19.43-9.74-27.58-17.12-7.6-6.88-13.4-15-16.23-25a40.35,40.35,0,0,1-1.57-11q0-30.8,0-61.6a5.84,5.84,0,0,1,.17-2.39c.8-.3,1.49.15,2.15.38,12.49,4.29,24.13,10.14,34.31,18.65a57.44,57.44,0,0,1,15.68,19.63A42.91,42.91,0,0,1,567.85,61c-.05,20.4,0,40.8,0,61.19A6,6,0,0,1,567.58,124.8Z"/></g></g></svg>